# xmcd
#
# Track frame offsets:
#	150
#	16200
#	28030
#	44500
#	62455
#	76076
#	92095
#	106848
#	119611
#	132920
#	142779
#	155418
#	171037
#
# Disc length: 2483 seconds
#
# Revision: 0
# Processed by: cddbd v1.5.2PL0 Copyright (c) Steve Scherf et al.
# Submitted via: EasyCDDAExtractor 16.0.6.1
#
DISCID=9b09b10d
DTITLE=Φράττης Δημήτρης ή Μητσάρας - Παλιά φρουρά 3-LP 1979 Μητσάρας
DYEAR=2014
DGENRE=Ρεμπέτικη
TTITLE0=Το βαπόρι
TTITLE1=Ο Χάρος
TTITLE2=Απ' τα πυκνά τα σίδερα
TTITLE3=Ντόκτορ
TTITLE4=Δεν μού φέρεσαι ωραία
TTITLE5=Η μάσκα
TTITLE6=Ο Βαγγέλης
TTITLE7=Σε γελάσανε
TTITLE8=Αναστενάζουν τα στενά
TTITLE9=Απόψε θα περάσω
TTITLE10=Μού 'φαγες τα δαχτυλίδια
TTITLE11=Το χασάπικο χορεύουν
TTITLE12=Έφυγες και μ' άφησες
EXTD=
EXTT0=
EXTT1=
EXTT2=
EXTT3=
EXTT4=
EXTT5=
EXTT6=
EXTT7=
EXTT8=
EXTT9=
EXTT10=
EXTT11=
EXTT12=
PLAYORDER=
